<svg xmlns="http://www.w3.org/2000/svg" width="74.527" height="90.693" viewBox="0 0 74.527 90.693"><defs><style>.a{fill:#fff;}</style></defs><path class="a" d="M127.011,63.15c18.333.2,23.9-15.34,13.693-31.874-5.453-8.81-12.75-19.72-10.56-31.277C121.976,13.949,90.421,62.755,127.011,63.15ZM122.532,35.5a16.8,16.8,0,0,1,2.576,6.674c.583-3.442-1.683-9.663,2.468-16.686.628-1.046,1.1-2.015,1.5-2.787-1.221,7.127,2.859,13.854,5.9,19.285,5.7,10.2,2.594,19.779-7.643,19.653C113.291,61.467,117.227,47.2,122.532,35.5Zm43,44.453-2.895,10.744-34.45-9.3L93.7,89.666,91.1,78.859l14.667-3.523L91.009,71.354,93.9,60.61l34.45,9.3,34.495-8.28,2.594,10.816L150.78,75.972Z" transform="translate(-91.009)"/></svg>