<svg xmlns="http://www.w3.org/2000/svg" width="109.202" height="78.682" viewBox="0 0 109.202 78.682"><defs><style>.a{fill:#fff;}</style></defs><path class="a" d="M64.945,87.395c0-.527,0-.955,0-1.383.082-7.337.025-14.674.278-22,.369-10.72.788-21.445,1.531-32.143.4-5.806,1.444-11.574,2.355-17.336a33.162,33.162,0,0,1,1.649-5.081c-.86-.373-1.472.1-1.729.955a67.6,67.6,0,0,0-2.1,7.564,187.462,187.462,0,0,0-2.454,25.809c-.415,10.83-.675,21.665-.949,32.5-.082,3.356.008,6.717.021,10.077v1.472a8.487,8.487,0,0,1-1.358-.228q-21.479-7.615-42.96-15.232c-.85-.3-.788-.732-.6-1.406a162.828,162.828,0,0,1,9.529-26.267A83.394,83.394,0,0,1,42.34,23.23c6.036-6.415,13-11.38,21.73-13.453,4.923-1.17,9.793-.582,14.6.687,7.489,1.982,13.754,6.093,19.314,11.364,7.839,7.423,13.615,16.339,18.523,25.86A161.856,161.856,0,0,1,127.47,75.053c.415,1.366.413,1.377-1,1.623Q105.316,80.4,84.155,84.1q-8.991,1.581-17.979,3.169c-.352.063-.71.076-1.231.126Zm6-7.973L116.705,71.7c-2.7-9.78-6.038-19.065-11.448-27.483A32.479,32.479,0,0,0,95.74,34.094,15.883,15.883,0,0,0,86.548,31.4c-3.571.105-6.354,1.984-8.536,4.71-1.088,1.362-1.988,2.874-3.129,4.543L76.079,38a2.31,2.31,0,0,0-.744.938,42.545,42.545,0,0,0-4.071,14.652c-.449,4.963-.616,9.959-.7,14.943-.059,3.557.232,7.115.373,10.885Zm-16.071-29.2c-.078-1.16-.108-2.292-.236-3.411a15.8,15.8,0,0,0-2.281-7.328,3.871,3.871,0,0,0-2.68-2.083A10.376,10.376,0,0,0,41.383,40c-3.114,2.766-4.145,6.485-4.716,10.4a1.105,1.105,0,0,0,.679.831c5.418.942,10.845,1.819,16.263,2.753.791.137.98-.211,1.033-.843.08-.978.154-1.959.228-2.909Z" transform="translate(-18.508 -9.146)"/></svg>