<svg xmlns="http://www.w3.org/2000/svg" width="83.998" height="60.055" viewBox="0 0 83.998 60.055"><defs><style>.a{fill:#fff;}</style></defs><path class="a" d="M98.741,200.036h3.409a4.455,4.455,0,0,0,1.21-2.228h5.686a4.455,4.455,0,0,0,1.21,2.228h3.409c2.084-2.305,6-3.861,10.488-3.861a18.5,18.5,0,0,1,2.555.173c-.605-2.737-4.331-4.86-8.826-4.86a10.924,10.924,0,0,0-7.4,2.516H101.93a10.924,10.924,0,0,0-7.4-2.516c-4.495,0-8.221,2.113-8.826,4.86a18.5,18.5,0,0,1,2.555-.173c4.485,0,8.4,1.556,10.488,3.861Zm47.147,24.711L135.506,205.3l-.019.01a12.134,12.134,0,0,0-8.778-7.616,12.463,12.463,0,0,0-2.555-.269,12.083,12.083,0,0,0-10.488,6.1H98.741a12.083,12.083,0,0,0-10.488-6.1,12.463,12.463,0,0,0-2.555.269,12.134,12.134,0,0,0-8.778,7.616l-.019-.01L66.519,224.747A17.982,17.982,0,1,0,98.482,241.18a9.017,9.017,0,0,0,15.443,0,17.983,17.983,0,1,0,31.963-16.433ZM82.193,245.54a12,12,0,0,1-11.986-11.986,11.786,11.786,0,0,1,1.421-5.647c.058-.115.125-.231.192-.346A11.983,11.983,0,1,1,82.193,245.54Zm24.01-6a2.958,2.958,0,1,1,3.006-2.958A2.988,2.988,0,0,1,106.2,239.538Zm0-11.909a9,9,0,0,0-4.6,1.258l1.815-19.343h5.859l1.556,19.352a9.018,9.018,0,0,0-4.629-1.268Zm24.01,17.912a11.986,11.986,0,1,1,10.372-17.979c.067.115.125.23.192.346a11.974,11.974,0,0,1-10.565,17.633Z" transform="translate(-64.205 -191.488)"/></svg>