<svg xmlns="http://www.w3.org/2000/svg" width="79.048" height="76.195" viewBox="0 0 79.048 76.195"><defs><style>.a{fill:#fff;}</style></defs><path class="a" d="M39.6,76.2C17.742,76.2,0,70.809,0,64.156c0-5.307,11.247-9.742,26.93-11.406l.4,4.435c-9.346,1.267-16.712,3.881-16.712,6.97,0,4.277,14.732,7.841,28.91,7.841,14.257,0,28.91-3.485,28.91-7.841,0-3.089-7.524-5.7-17.029-6.97l.4-4.435c15.841,1.584,27.246,6.1,27.246,11.406C79.2,70.809,61.463,76.2,39.6,76.2Zm-1.9-9.109V46.414h5.307V67.166c0-.079-5.307-.079-5.307-.079ZM20.672,28.751H55.047l13.465,8L54.889,44.83H20.672ZM3.089,17.584l13.465-8H68.591V25.662H16.712ZM37.7,0h5.307V7.841H37.7Z"/></svg>